<?xml version="1.0" standalone="no"?>
<!DOCTYPE svg PUBLIC "-//W3C//DTD SVG 20010904//EN"
 "http://www.w3.org/TR/2001/REC-SVG-20010904/DTD/svg10.dtd">
<svg version="1.0" xmlns="http://www.w3.org/2000/svg"
 width="512.000000pt" height="512.000000pt" viewBox="0 0 512.000000 512.000000"
 preserveAspectRatio="xMidYMid meet">

<g transform="translate(0.000000,512.000000) scale(0.100000,-0.100000)"
fill="#000000" stroke="none">
<path d="M1770 4529 l-765 -379 -3 -380 c-1 -209 1 -380 5 -380 5 0 352 61
773 137 l765 136 540 -87 c599 -97 670 -114 817 -202 102 -61 230 -185 296
-286 238 -367 194 -838 -107 -1152 -117 -120 -227 -192 -371 -241 -36 -12
-315 -70 -620 -130 l-555 -108 -757 127 c-417 69 -764 126 -773 126 -13 0 -15
-45 -15 -359 l0 -360 123 -64 c67 -35 412 -210 767 -389 l645 -325 621 321
c702 363 744 386 881 490 518 390 816 1053 764 1697 -47 571 -325 1085 -767
1418 -156 117 -214 148 -864 461 -333 161 -612 296 -620 300 -10 5 -267 -117
-780 -371z"/>
<path d="M1450 3021 c-586 -109 -1082 -201 -1102 -205 l-38 -7 0 -249 0 -249
53 -10 c28 -6 529 -99 1111 -206 l1059 -195 547 85 c351 54 566 91 603 105
199 74 327 259 327 470 0 210 -128 396 -326 469 -34 13 -262 53 -606 106 -304
47 -554 85 -558 84 -3 -1 -484 -90 -1070 -198z"/>
</g>
</svg>
